<svg width="42" height="42" viewBox="0 0 42 42" fill="none" xmlns="http://www.w3.org/2000/svg">
<path d="M0 38.7692V3.23077C0 2.37392 0.340384 1.55216 0.94627 0.94627C1.55216 0.340384 2.37392 0 3.23077 0H38.7692C39.6261 0 40.4478 0.340384 41.0537 0.94627C41.6596 1.55216 42 2.37392 42 3.23077V38.7692C42 39.6261 41.6596 40.4478 41.0537 41.0537C40.4478 41.6596 39.6261 42 38.7692 42H29.0769V26.6862H31.3708C31.8934 26.6862 32.3947 26.4785 32.7643 26.1089C33.1339 25.7393 33.3415 25.2381 33.3415 24.7154V22.2277C33.3407 21.7053 33.1328 21.2045 32.7634 20.8351C32.394 20.4657 31.8932 20.2578 31.3708 20.2569H29.2062V17.22C29.2062 14.5062 30.4338 14.5062 31.6615 14.5062H33.2446C33.5046 14.5169 33.7638 14.4703 34.0039 14.3698C34.2439 14.2694 34.459 14.1174 34.6338 13.9246C34.8216 13.7459 34.9702 13.5301 35.0703 13.291C35.1704 13.0519 35.2198 12.7946 35.2154 12.5354V10.1446C35.2249 9.88132 35.1822 9.61875 35.0897 9.37205C34.9972 9.12534 34.8569 8.89937 34.6767 8.70716C34.4965 8.51495 34.28 8.36031 34.0398 8.25214C33.7995 8.14398 33.5403 8.08443 33.2769 8.07692H29.5615C28.4774 8.03617 27.3974 8.23123 26.3961 8.64863C25.3947 9.06603 24.4959 9.69583 23.7617 10.4945C23.0276 11.2932 22.4755 12.2417 22.1437 13.2746C21.8119 14.3075 21.7083 15.4001 21.84 16.4769V20.2569H19.7723C19.5108 20.2526 19.251 20.3004 19.0082 20.3976C18.7654 20.4947 18.5443 20.6392 18.3578 20.8226C18.1714 21.006 18.0233 21.2247 17.9223 21.466C17.8212 21.7072 17.7692 21.9661 17.7692 22.2277V24.7154C17.7692 24.9769 17.8212 25.2359 17.9223 25.4771C18.0233 25.7183 18.1714 25.937 18.3578 26.1205C18.5443 26.3039 18.7654 26.4484 19.0082 26.5455C19.251 26.6426 19.5108 26.6904 19.7723 26.6862H21.84V42H3.23077C2.37392 42 1.55216 41.6596 0.94627 41.0537C0.340384 40.4478 0 39.6261 0 38.7692Z" fill="white"/>
</svg>
