<svg width="48" height="48" viewBox="0 0 48 48" fill="none" xmlns="http://www.w3.org/2000/svg">
<rect width="48" height="48" fill="#E5E5E5"/>
<rect width="1440" height="2979" transform="translate(-1147 -2744)" fill="white"/>
<rect width="1440" height="258" transform="translate(-1147 -23)" fill="#333434"/>
<path d="M15.1111 4C8.97556 4 4 8.97556 4 15.1111V32.8889C4 39.0244 8.97556 44 15.1111 44H32.8889C39.0244 44 44 39.0244 44 32.8889V15.1111C44 8.97556 39.0244 4 32.8889 4H15.1111ZM37.3333 8.44444C38.56 8.44444 39.5556 9.44 39.5556 10.6667C39.5556 11.8933 38.56 12.8889 37.3333 12.8889C36.1067 12.8889 35.1111 11.8933 35.1111 10.6667C35.1111 9.44 36.1067 8.44444 37.3333 8.44444ZM24 12.8889C30.1356 12.8889 35.1111 17.8644 35.1111 24C35.1111 30.1356 30.1356 35.1111 24 35.1111C17.8644 35.1111 12.8889 30.1356 12.8889 24C12.8889 17.8644 17.8644 12.8889 24 12.8889ZM24 17.3333C22.2319 17.3333 20.5362 18.0357 19.286 19.286C18.0357 20.5362 17.3333 22.2319 17.3333 24C17.3333 25.7681 18.0357 27.4638 19.286 28.714C20.5362 29.9643 22.2319 30.6667 24 30.6667C25.7681 30.6667 27.4638 29.9643 28.714 28.714C29.9643 27.4638 30.6667 25.7681 30.6667 24C30.6667 22.2319 29.9643 20.5362 28.714 19.286C27.4638 18.0357 25.7681 17.3333 24 17.3333Z" fill="white"/>
</svg>
