<svg width="26" height="30" viewBox="0 0 26 30" fill="none" xmlns="http://www.w3.org/2000/svg">
<path d="M1 1H5.51094L7.11803 19.6308C7.18483 20.1444 7.40857 20.6125 7.74803 20.9489C8.08748 21.2853 8.51978 21.4674 8.96527 21.4615H20.6028C21.0057 21.486 21.4043 21.3561 21.7378 21.0917C22.0714 20.8272 22.3215 20.4427 22.4501 19.9969L24.9069 11.3815C24.9986 11.0577 25.023 10.713 24.9781 10.3759C24.9331 10.0389 24.8201 9.71915 24.6483 9.44307C24.4694 9.14946 24.2303 8.91281 23.9528 8.75478C23.6753 8.59674 23.3682 8.52237 23.0597 8.53846H6.15747" stroke="#020C18" stroke-width="1.71429" stroke-linecap="round" stroke-linejoin="round"/>
<path d="M20.2888 29C20.0438 29 19.8089 28.8865 19.6357 28.6846C19.4625 28.4826 19.3652 28.2087 19.3652 27.9231C19.3652 27.6374 19.4625 27.3635 19.6357 27.1616C19.8089 26.9596 20.0438 26.8461 20.2888 26.8461C20.5338 26.8461 20.7687 26.9596 20.9419 27.1616C21.1151 27.3635 21.2124 27.6374 21.2124 27.9231C21.2124 28.2087 21.1151 28.4826 20.9419 28.6846C20.7687 28.8865 20.5338 29 20.2888 29Z" stroke="#020C18" stroke-width="1.71429" stroke-linecap="round" stroke-linejoin="round"/>
<path d="M8.28177 29C8.03681 29 7.80189 28.8865 7.62867 28.6846C7.45546 28.4826 7.35815 28.2087 7.35815 27.9231C7.35815 27.6374 7.45546 27.3635 7.62867 27.1616C7.80189 26.9596 8.03681 26.8461 8.28177 26.8461C8.52673 26.8461 8.76165 26.9596 8.93487 27.1616C9.10808 27.3635 9.20539 27.6374 9.20539 27.9231C9.20539 28.2087 9.10808 28.4826 8.93487 28.6846C8.76165 28.8865 8.52673 29 8.28177 29Z" stroke="#020C18" stroke-width="1.71429" stroke-linecap="round" stroke-linejoin="round"/>
</svg>
