<svg width="42" height="40" viewBox="0 0 42 40" fill="none" xmlns="http://www.w3.org/2000/svg">
<path fill-rule="evenodd" clip-rule="evenodd" d="M25.5051 0.363161C29.4803 -0.763857 34.2769 0.790419 37.1987 4.21857H40.4748C40.733 4.21883 40.9869 4.29125 41.2128 4.42904C41.4387 4.56684 41.6292 4.76552 41.7664 5.00649C41.9037 5.24746 41.9832 5.52286 41.9976 5.80692C42.012 6.09098 41.9608 6.37442 41.8487 6.63073L38.6276 13.9849C39.5436 22.557 36.4996 30.7523 30.3779 35.5968C24.1189 40.5523 14.9075 41.8004 3.98323 36.8685C3.39056 36.621 2.88246 36.1764 2.52943 35.5964C2.17639 35.0165 1.99591 34.3298 2.01303 33.6317C2.03014 32.9335 2.244 32.2586 2.62494 31.7005C3.00588 31.1423 3.53501 30.7286 4.13894 30.5168C5.81499 30.0166 7.42146 29.2673 8.91411 28.2897C5.57055 26.0761 2.95279 22.7479 1.43953 18.7865C-0.0737218 14.825 -0.403992 10.4359 0.496503 6.25393C0.56498 5.62948 0.790963 5.03868 1.1488 4.54861C1.50664 4.05853 1.98199 3.68881 2.52091 3.48141C3.05982 3.27401 3.64072 3.23724 4.19764 3.37527C4.75457 3.51331 5.26522 3.82061 5.67164 4.26231C9.98578 8.93523 13.7564 10.8663 16.37 11.6569C17.3836 11.963 18.2324 12.101 18.8797 12.1582C18.6782 9.19764 19.1361 6.72829 20.1498 4.77704C21.3833 2.39852 23.3465 0.975452 25.5051 0.363161Z" fill="white"/>
</svg>
