<svg width="27" height="27" viewBox="0 0 27 27" fill="none" xmlns="http://www.w3.org/2000/svg">
<path d="M13 17.1538C14.1731 17.1538 15.2981 16.5865 16.1276 15.5767C16.9571 14.5669 17.4231 13.1973 17.4231 11.7692C17.4231 10.3411 16.9571 8.97151 16.1276 7.9617C15.2981 6.95189 14.1731 6.38458 13 6.38458C11.827 6.38458 10.7019 6.95189 9.87244 7.9617C9.04295 8.97151 8.57695 10.3411 8.57695 11.7692C8.57695 13.1973 9.04295 14.5669 9.87244 15.5767C10.7019 16.5865 11.827 17.1538 13 17.1538Z" stroke="#020C18" stroke-width="1.71429" stroke-linecap="round" stroke-linejoin="round"/>
<path d="M5.4454 25.5539C6.23491 23.9762 7.34451 22.6723 8.66754 21.7676C9.99057 20.8628 11.4825 20.3876 13 20.3876C14.5175 20.3876 16.0095 20.8628 17.3325 21.7676C18.6555 22.6723 19.7651 23.9762 20.5546 25.5539" stroke="#020C18" stroke-width="1.71429" stroke-linecap="round" stroke-linejoin="round"/>
<path d="M13.5 25C16.6826 25 19.7348 23.7357 21.9853 21.4853C24.2357 19.2348 25.5 16.1826 25.5 13C25.5 9.8174 24.2357 6.76516 21.9853 4.51472C19.7348 2.26428 16.6826 1 13.5 1C10.3174 1 7.26516 2.26428 5.01472 4.51472C2.76428 6.76516 1.5 9.8174 1.5 13C1.5 16.1826 2.76428 19.2348 5.01472 21.4853C7.26516 23.7357 10.3174 25 13.5 25Z" stroke="#020C18" stroke-width="1.71429" stroke-linecap="round" stroke-linejoin="round"/>
</svg>
